<svg width="76" height="51" viewBox="0 0 76 51" fill="none" xmlns="http://www.w3.org/2000/svg">
<path d="M75.9999 8.84831V50.0512C75.9999 50.5493 75.7153 50.834 75.2172 50.834H67.5316C62.5503 50.834 58.9922 47.4182 58.9922 42.2234V22.5114C58.9922 18.2417 61.4829 15.3952 65.1833 15.3952C67.6028 15.3952 68.8837 14.0431 68.8837 12.0506V8.91947C68.8837 8.20785 68.3144 7.63855 67.4605 7.63855C66.7489 7.63855 66.1084 8.06553 66.1084 8.91947V10.0581C66.1084 12.4776 64.4717 14.1143 62.0522 14.1143H60.1308C59.4903 14.1143 58.9922 13.6162 58.9922 12.9757V9.13296C58.9922 4.00928 62.5503 0.522339 67.674 0.522339C72.6553 0.522339 75.9999 3.86696 75.9999 8.84831ZM68.8837 22.6538C67.1047 23.1519 66.1084 24.8598 66.1084 26.9947V42.4368C66.1084 43.2908 66.7489 43.7178 67.4605 43.7178C68.3144 43.7178 68.8837 43.1485 68.8837 42.4368V22.6538Z" fill="white"/>
<path d="M48.1162 8.91947V49.6954C48.1162 50.3358 47.6181 50.834 46.9776 50.834H41.7828C41.2846 50.834 41 50.5493 41 50.0512V8.84831C41 3.86696 44.3446 0.522339 49.326 0.522339C54.4496 0.522339 58.0078 4.00928 58.0078 9.13296V12.9757C58.0078 13.6162 57.5096 14.1143 56.8692 14.1143H54.9478C52.5283 14.1143 50.8915 12.4776 50.8915 10.0581V8.91947C50.8915 8.06553 50.2511 7.63855 49.4683 7.63855C48.6855 7.63855 48.1162 8.20785 48.1162 8.91947Z" fill="white"/>
<path d="M30.437 7.56744V2.01679C30.437 1.51866 30.7217 1.23401 31.2198 1.23401H36.7704C37.2686 1.23401 37.5532 1.51866 37.5532 2.01679V7.56744C37.5532 8.06558 37.2686 8.35023 36.7704 8.35023H31.2198C30.7217 8.35023 30.437 8.06558 30.437 7.56744ZM30.437 50.0512V11.1967C30.437 10.6986 30.7217 10.4139 31.2198 10.4139H36.7704C37.2686 10.4139 37.5532 10.6986 37.5532 11.1967V50.0512C37.5532 50.5494 37.2686 50.834 36.7704 50.834H31.2198C30.7217 50.834 30.437 50.5494 30.437 50.0512Z" fill="white"/>
<path d="M0 50.0512V2.01679C0 1.51866 0.28465 1.23401 0.782785 1.23401H6.11995C6.61808 1.23401 6.97389 1.51866 7.11622 2.01679L13.4496 26.4966L19.8542 2.01679C19.9966 1.51866 20.3524 1.23401 20.8505 1.23401H26.1165C26.6146 1.23401 26.8993 1.51866 26.8993 2.01679V50.0512C26.8993 50.5494 26.6146 50.834 26.1165 50.834H20.637C20.1389 50.834 19.8542 50.5494 19.8542 50.0512V27.0659L15.5845 50.0512C15.5133 50.5494 15.1575 50.834 14.6594 50.834H12.2399C11.7418 50.834 11.3859 50.5494 11.3148 50.0512L7.11622 27.0659V50.0512C7.11622 50.5494 6.83157 50.834 6.33343 50.834H0.782785C0.28465 50.834 0 50.5494 0 50.0512Z" fill="white"/>
</svg>
